<svg width="105" height="49" viewBox="0 0 105 49" fill="none" xmlns="http://www.w3.org/2000/svg">
<path fill-rule="evenodd" clip-rule="evenodd" d="M37.1223 5.21097C17.7035 10.187 3.5 25.6495 3.5 47.3829C3.5 48.2113 2.82843 48.8829 2 48.8829C1.17157 48.8829 0.5 48.2113 0.5 47.3829C0.5 24.1164 15.7965 7.57879 36.3777 2.30486C56.1261 -2.75569 80.6866 2.53168 101.5 21.8544V11.8829C101.5 11.0545 102.172 10.3829 103 10.3829C103.828 10.3829 104.5 11.0545 104.5 11.8829V25.3829C104.5 26.2113 103.828 26.8829 103 26.8829H89.5C88.6716 26.8829 88 26.2113 88 25.3829C88 24.5545 88.6716 23.8829 89.5 23.8829H99.2753C79.1774 5.32548 55.7292 0.442959 37.1223 5.21097Z" fill="white"/>
</svg>
