<svg width="1288" height="638" viewBox="0 0 1288 638" fill="none" xmlns="http://www.w3.org/2000/svg">
<path d="M329.936 636.2C324.546 634.183 323.038 632.208 324.319 628.841C324.912 627.282 326.051 626.005 326.85 626.005C327.65 626.005 331.149 627.844 334.627 630.091C338.105 632.338 342.357 634.688 344.077 635.312L347.203 636.447L343.357 636.531C341.241 636.577 338.137 636.814 336.459 637.057C334.781 637.3 331.846 636.915 329.936 636.2ZM317.702 625.848C316.687 625.28 314.995 625.089 313.941 625.423C312.615 625.844 311.591 625.217 310.609 623.383C309.83 621.927 308.433 620.475 307.505 620.156C305.376 619.424 300.913 612.195 298.429 605.455C297.175 602.051 295.488 599.698 293.485 598.559C289.931 596.537 289.676 595.621 292.427 594.748C295.574 593.749 296.16 588.202 293.511 584.483C292.246 582.708 291.581 580.623 291.962 579.631C292.411 578.46 291.171 576.405 288.167 573.344C284.375 569.481 283.674 568.077 283.504 564.007C283.394 561.372 282.753 558.552 282.078 557.739C281.228 556.716 281.055 553.042 281.514 545.779C282.011 537.907 281.721 533.049 280.351 526.277C278.317 516.221 277.278 497.485 277.806 480.392C277.919 476.745 277.446 471.738 276.756 469.265C275.074 463.244 267.336 455.643 257.772 450.619C250.932 447.025 249.97 446.104 247.297 440.584C245.677 437.241 242.583 432.245 240.419 429.482C238.256 426.719 235.904 422.66 235.193 420.464C232.935 413.492 228.955 406.487 226.242 404.71C224.798 403.764 223.152 401.305 222.583 399.245C221.662 395.911 221.905 394.981 224.786 390.793C227.911 386.253 227.948 386.068 225.836 385.516C220.648 384.159 222.83 377.226 232.143 365.476C238.333 357.667 240.146 351.718 238.432 344.845C237.778 342.226 237.193 339.486 237.131 338.757C237.07 338.027 236.604 337.43 236.098 337.43C235.591 337.43 235.688 336.473 236.314 335.304C237.279 333.502 237.035 332.987 234.717 331.931C231.338 330.392 226.237 331.914 226.217 334.467C226.193 337.528 224.847 337.753 220.407 335.44C218.03 334.201 215.56 333.187 214.919 333.187C214.278 333.187 211.786 331.492 209.381 329.42C206.975 327.349 204.41 325.181 203.681 324.604C202.951 324.027 202.354 322.454 202.354 321.109C202.354 319.763 201.417 317.815 200.272 316.778C199.127 315.742 197.643 313.237 196.974 311.212C196.095 308.549 195.437 307.85 194.6 308.687C192.851 310.435 190.263 310.103 183.981 307.326C180.696 305.873 177.275 303.393 175.908 301.474C174.603 299.643 172.11 297.407 170.369 296.506C167.494 295.02 166.775 295.032 162.588 296.63L157.974 298.392L143.82 291.534C135.113 287.316 128.355 283.292 126.262 281.079C123.017 277.648 122.912 277.276 123.992 273.022C124.981 269.126 124.813 267.921 122.661 263.477C121.307 260.679 118.348 256.383 116.086 253.929C113.823 251.475 112.229 249.051 112.543 248.543C112.857 248.035 111.264 244.611 109.002 240.933C106.432 236.756 104.619 232.281 104.168 229.006C103.591 224.808 102.918 223.524 100.787 222.553C98.5294 221.525 97.898 221.656 96.605 223.422C94.7841 225.909 95.3017 228.534 99.3281 237.234C100.964 240.769 102.655 246.009 103.086 248.879C103.516 251.749 104.788 255.899 105.911 258.1C108.572 263.316 106.854 263.224 102.657 257.926C100.182 254.802 99.5137 253.088 100.006 251.129C100.531 249.036 100.014 248.029 97.4411 246.127C93.5394 243.243 92.7136 241.383 94.1469 238.705C94.9826 237.144 94.5994 235.432 92.4769 231.244C90.3214 226.991 89.8706 224.931 90.4042 221.773C91.2766 216.61 88.96 211.938 84.6412 210.149C82.1477 209.117 81.2881 207.962 80.7801 204.961C80.4206 202.837 79.7322 199.552 79.2502 197.66C78.7489 195.692 78.7853 193.966 79.3355 193.626C79.8643 193.3 79.5183 191.844 78.5665 190.392C77.1648 188.253 77.0688 187.241 78.0612 185.063C78.7351 183.584 78.9894 181.894 78.6264 181.307C78.2634 180.72 79.168 178.965 80.6366 177.408C82.1051 175.851 84.0603 172.745 84.9814 170.506C85.9024 168.268 88.7409 164.118 91.289 161.284C93.8371 158.451 97.0675 153.487 98.4676 150.254C100.411 145.767 101.55 144.372 103.283 144.358C104.531 144.348 105.486 144.937 105.405 145.666C105.068 148.706 107.471 147.769 110.172 143.809C111.763 141.475 112.622 139.406 112.08 139.212C111.538 139.017 111.094 138.139 111.094 137.261C111.094 136.382 108.898 133.528 106.213 130.92C101.759 126.592 101.473 126.019 102.954 124.383C104.154 123.057 104.295 122.085 103.495 120.655C102.089 118.143 104.307 112.518 106.713 112.495C107.707 112.486 107.99 112.148 107.38 111.7C106.012 110.694 105.392 108.411 105.584 105.085C105.891 99.7728 104.728 97.5506 100.778 95.9004C98.6469 95.0103 95.3955 93.132 93.5524 91.7265C91.7093 90.321 89.3709 89.1711 88.356 89.1711C87.341 89.1711 82.7275 88.2054 78.1038 87.0251C70.67 85.1275 69.3598 85.0525 66.7847 86.3776C61.4482 89.1236 55.7943 90.2428 53.4894 89.0094C51.7604 88.0844 49.8737 88.6556 43.2945 92.0964C38.8541 94.4185 33.5498 96.6788 31.507 97.1193C29.4643 97.5597 25.555 99.0475 22.8196 100.425C15.0609 104.334 3.94653 108.274 0.872217 108.206C-1.11189 108.162 0.229534 107.292 5.50852 105.199C14.4802 101.642 23.699 97.0096 24.5517 95.6302C25.6019 93.9313 23.3222 93.3217 20.5836 94.5692C18.5674 95.4876 17.3248 95.4017 14.9981 94.1829L12.0058 92.6154L15.2608 90.9325C18.9404 89.0301 20.098 86.8777 19.2525 83.51C18.4337 80.2484 22.9482 77.8519 32.6737 76.3855C37.8993 75.5976 41.8718 74.286 44.5464 72.4657C49.2627 69.2558 48.4525 66.8298 43.3674 68.9356C40.9601 69.9325 39.2067 69.9434 35.6417 68.9837C31.3093 67.8173 31.1549 67.6508 33.0928 66.2341C36.3353 63.8636 43.0416 62.4378 47.4478 63.1821C50.2359 63.653 52.5198 63.3233 54.8637 62.1115L58.2507 60.3604L56.0211 57.9876C54.7948 56.6826 53.7915 55.3342 53.7915 54.9913C53.7915 54.0069 60.1798 52.0383 63.374 52.0383C64.9683 52.0383 69.3391 50.8844 73.0867 49.4741C76.8344 48.0638 85.4807 46.1384 92.3009 45.1954C103.362 43.666 105.705 43.6474 113.999 45.0224C119.114 45.8702 126.163 46.8813 129.665 47.2694C133.167 47.6575 139.365 48.8892 143.439 50.0066C152.9 52.6019 159.062 52.5702 169.632 49.872C174.3 48.6806 179.017 47.9909 180.115 48.3394C181.214 48.6879 183.081 48.4547 184.265 47.8211C185.897 46.9482 187.162 47.0538 189.489 48.2572C191.593 49.3445 194.189 49.6549 197.723 49.2415C201.452 48.8054 204.717 49.257 209.484 50.8685C213.113 52.0954 217.144 53.0992 218.441 53.0992C220.739 53.0992 220.747 53.1382 218.74 54.6149C216.772 56.0629 216.767 56.1639 218.614 56.8798C219.678 57.292 223.371 57.3342 226.82 56.9737C233.05 56.3227 233.104 56.341 234.841 59.6997L236.59 63.081L238.861 60.2345C240.165 58.5987 243.266 56.7456 246.149 55.8779C250.508 54.5664 251.831 54.5708 256.209 55.9111C259.299 56.8573 262.997 57.202 265.767 56.802C269.295 56.2926 270.932 56.6099 273.234 58.2482C276.139 60.3166 276.22 60.3176 278.797 58.321C280.235 57.2067 283.194 55.7985 285.373 55.1916C290.588 53.7387 292.358 50.6426 289.225 48.4491C287.01 46.8979 287.107 46.7796 292.93 43.9245C297.272 41.7952 299.228 41.3116 300.074 42.1579C300.92 43.0041 300.912 43.935 300.043 45.5588C298.561 48.3265 300.405 52.51 302.716 51.6234C303.547 51.3047 304.925 51.3119 305.778 51.6393C307.119 52.1537 307.097 52.5898 305.62 54.8433C301.54 61.0689 310.687 59.305 316.88 52.672C319.398 49.9753 323.298 49.1577 326.955 50.5604C329.316 51.4663 329.095 52.2079 325.184 56.4945C320.524 61.6029 318.14 62.6477 311.141 62.6477C307.758 62.6477 303.765 63.3803 301.904 64.3424C299.328 65.674 298.072 65.7848 296.041 64.8594C292.253 63.134 290.935 64.5701 293.652 67.4614L295.971 69.9295L291.344 71.2423C288.799 71.9644 284.568 72.625 281.942 72.7104C278.133 72.8341 277.165 73.2475 277.159 74.7527C277.154 76.0408 275.301 77.3964 271.323 79.0223C258.432 84.2905 247.497 93.7894 251.456 96.2797C252.198 96.7464 253.375 98.4279 254.073 100.016C254.876 101.846 256.424 103.122 258.295 103.496C259.92 103.821 264.114 105.498 267.616 107.222C271.118 108.946 275.416 110.669 277.167 111.05C281.987 112.101 282.029 112.211 279.784 117.906C277.863 122.778 277.825 123.473 279.313 126.351C280.205 128.076 281.52 129.47 282.234 129.449C285.711 129.349 288.972 126.14 290.998 120.826C292.928 115.76 293.808 114.816 299.35 111.856C307.529 107.489 310.931 103.187 310.024 98.3567C309.434 95.2103 309.74 94.472 312.434 92.5544C314.131 91.346 316.379 88.4537 317.428 86.1271C319.774 80.9266 323.543 79.1239 329.899 80.1627C335.535 81.084 342.201 84.6618 343.006 87.198C343.337 88.2392 343.062 90.1089 342.396 91.353C341.387 93.2374 341.578 94.033 343.537 96.1181L345.889 98.6211L349.73 96.6307C351.842 95.5359 355.228 93.4004 357.253 91.885L360.936 89.1297L361.802 91.4683C362.278 92.7545 362.413 94.4693 362.102 95.2791C361.791 96.0888 362.033 97.678 362.639 98.8105C363.321 100.085 363.374 101.526 362.778 102.59C362.106 103.79 362.555 105.614 364.263 108.62C366.71 112.926 366.71 112.93 364.561 114.435C361.734 116.414 363.548 118.514 366.651 116.854C369.733 115.205 373.261 115.419 375.437 117.388C378.653 120.298 375.978 123.779 367.442 127.795C358.156 132.162 354.018 133.028 341.898 133.135C332.948 133.214 331.763 133.499 323.062 137.669C317.955 140.117 313.777 142.54 313.777 143.053C313.777 145.242 315.386 145.051 321.56 142.131C325.197 140.411 329.886 139.036 332.119 139.036C335.934 139.035 336.073 139.153 334.882 141.378C334.192 142.667 332.704 144.469 331.575 145.383C329.8 146.82 329.696 147.427 330.807 149.864C332.473 153.52 336.824 155.28 342.029 154.402L346.142 153.708L342.98 155.889C341.24 157.089 338.375 158.382 336.613 158.763C334.85 159.143 331.228 160.552 328.564 161.895C325.859 163.257 323.142 163.978 322.412 163.527C320.733 162.489 322.505 160.932 327.961 158.653C332.814 156.626 332.038 154.472 326.809 155.453C324.772 155.835 318.166 158.323 312.13 160.981C302.708 165.13 301.065 166.226 300.516 168.723C299.842 171.792 297.542 173.243 289.455 175.703C286.875 176.488 283.532 178.384 282.026 179.917C280.521 181.45 277.638 183.746 275.62 185.018C273.602 186.291 271.67 188.52 271.326 189.972C270.76 192.365 270.629 192.422 269.92 190.578C268.592 187.124 266.592 190.501 266.476 196.392C266.358 202.427 263.298 206.544 256.588 209.696C249.707 212.928 239.916 220.566 237.933 224.249C236.181 227.5 236.108 228.767 237.187 237.124C238.194 244.92 238.134 246.876 236.809 249.438C235.82 251.35 234.665 252.264 233.705 251.896C231.428 251.022 228.643 241.655 229.424 237.495C229.966 234.606 229.607 233.511 227.453 231.488C225.717 229.858 224.115 229.238 222.753 229.67C221.616 230.031 218.402 229.347 215.607 228.149C211.325 226.314 209.958 226.16 206.901 227.169C204.828 227.853 202.768 229.475 202.094 230.954C201.09 233.156 200.426 233.439 197.655 232.843C195.862 232.457 193.106 231.483 191.53 230.678C187.649 228.696 185.475 228.834 181.115 231.34C179.081 232.51 174.931 234.747 171.893 236.313C168.401 238.112 166.002 240.16 165.373 241.879C164.826 243.375 162.869 249.205 161.025 254.835L157.672 265.072L159.385 271.68C162.531 283.821 166.909 287.455 176.031 285.5C182.908 284.025 187.037 281.037 188.555 276.439C189.52 273.518 190.559 272.553 193.672 271.688C198.357 270.387 200.314 270.339 202.113 271.481C203.598 272.423 203.076 273.973 196.428 288.365C191.866 298.24 192.194 299.123 200.01 297.996C207.131 296.969 213.64 297.757 214.4 299.738C214.696 300.51 214.214 305.722 213.329 311.318C211.744 321.331 211.756 321.555 214.036 325.244C215.311 327.307 217.702 329.691 219.349 330.542C221.977 331.901 222.802 331.898 226.11 330.517C231.365 328.321 234.22 328.553 237.87 331.473C240.789 333.808 241.201 333.874 243.495 332.371C244.857 331.479 246.714 329.269 247.623 327.459C249.672 323.378 253.124 320.51 256.024 320.479C257.235 320.466 259.348 319.262 260.719 317.803C263.502 314.841 268.404 313.875 266.008 316.762C263.998 319.184 262.848 326.974 264.144 329.395C265.223 331.411 265.31 331.399 267.273 328.975C268.671 327.249 268.953 326.142 268.189 325.378C266.366 323.556 266.915 322.041 270.307 319.535C273.828 316.932 276.552 317.199 279.59 320.445C281.818 322.825 293.713 326.042 297.122 325.187C302.314 323.884 316.342 332.411 321.612 340.074C324.122 343.722 332.139 347.394 335.665 346.51C342.917 344.69 352.859 351.954 355.184 360.771C355.876 363.397 356.92 365.843 357.504 366.206C359.052 367.17 356.733 370.981 351.663 375.802C348.424 378.883 347.651 380.209 348.562 381.12C349.473 382.031 350.971 381.233 354.568 377.918C359.799 373.097 361.544 372.608 364.165 375.228C365.759 376.822 365.71 377.147 363.525 379.472C362.224 380.857 360.407 382.02 359.487 382.057C358.518 382.096 358.91 382.561 360.419 383.164C362.492 383.991 363.573 383.758 365.725 382.021C371.327 377.495 372.645 377.277 377.622 380.057C380.857 381.864 382.153 383.24 381.99 384.695C381.536 388.741 382.491 389.637 385.296 387.799C387.526 386.338 389.056 386.269 396.516 387.29C404.452 388.377 405.491 388.81 409.298 392.616C412.125 395.442 415.304 397.301 419.298 398.461C424.661 400.02 425.244 400.495 426.216 404.107C427.626 409.342 425.974 415.152 421.506 420.671C419.597 423.029 417.257 426.49 416.306 428.362C415.356 430.235 413.334 433.011 411.813 434.531C409.24 437.104 409.096 437.748 409.738 443.858C410.991 455.794 405.151 478.063 399.519 482.825C397.685 484.376 396.116 484.74 393.208 484.289C390.817 483.919 389.048 484.158 388.581 484.914C388.165 485.587 385.848 487.006 383.431 488.068C381.015 489.131 377.418 491.383 375.438 493.074C372.01 496.001 371.895 496.326 373.049 499.82C374.379 503.849 373.483 508.619 370.633 512.688C369.711 514.003 368.957 516.241 368.957 517.66C368.957 519.08 367.85 521.719 366.497 523.525C365.144 525.33 362.533 529.464 360.696 532.71C356.176 540.696 353.458 542.08 346.904 539.731C341.216 537.693 338.184 537.45 338.184 539.031C338.184 539.627 339.317 540.631 340.703 541.263C342.089 541.894 344.248 544.464 345.502 546.973C347.369 550.71 347.566 552.008 346.593 554.143C345.086 557.45 339.323 560.227 333.966 560.227C329.221 560.227 328.044 561.388 329.682 564.449C330.694 566.339 330.014 569.379 328.057 571.711C327.899 571.899 326.237 571.262 324.365 570.294C319.896 567.983 318.314 569.455 320.572 573.822C321.491 575.599 323.238 577.368 324.454 577.754C326.545 578.417 326.567 578.564 324.868 580.442C323.878 581.535 323.364 583.195 323.725 584.135C324.113 585.145 323.248 587.326 321.608 589.476C318.941 592.972 318.903 593.214 320.612 595.823C321.59 597.315 323.115 598.813 324.001 599.153C327.197 600.379 327.726 604.568 325.29 609.344C322.848 614.128 322.474 618.925 324.363 621.201C326.081 623.27 320.301 627.302 317.702 625.848ZM239.495 166.345C242.331 160.422 247.607 156.01 251.856 156.01C254.914 156.01 254.95 156.506 252.15 160.065L249.948 162.864L252.207 164.693C254.027 166.167 254.966 166.294 257.041 165.349C258.458 164.704 259.91 163.253 260.268 162.125C260.755 160.59 261.547 160.232 263.415 160.701C265.145 161.135 266.228 160.763 266.939 159.492C269.096 155.64 263.608 150.713 259.569 152.875C256.679 154.421 252.903 151.344 253.709 148.1C254.007 146.897 253.393 144.804 252.329 143.4C250.135 140.505 246.799 140.2 239.495 142.227C236.869 142.956 233.874 143.52 232.84 143.48C231.806 143.44 231.237 143.856 231.576 144.404C231.915 144.952 231.806 145.411 231.334 145.424C230.862 145.437 229.287 146.361 227.835 147.476L225.194 149.505L228.16 150.632C230.478 151.513 231.844 151.387 234.419 150.056C237.446 148.492 238.006 148.492 241.309 150.067C243.298 151.016 246.014 151.503 247.39 151.157C248.757 150.814 250.168 151.007 250.526 151.586C250.892 152.178 249.397 152.94 247.112 153.326C240.902 154.375 237.675 156.96 233.171 164.498C229.408 170.793 229.193 171.553 230.692 173.217C232.164 174.85 232.57 174.875 234.589 173.464C235.828 172.597 238.036 169.394 239.495 166.345ZM258.775 172.894C262.552 170.967 262.916 170.483 261.584 169.152C260.253 167.821 259.412 167.908 255.081 169.824C249.996 172.073 248.382 175.107 252.271 175.107C253.462 175.107 256.388 174.111 258.775 172.894ZM277.59 164.877C279.801 163.33 279.883 163.026 278.324 162.154C276.029 160.87 269.208 163.082 269.208 165.11C269.208 167.2 274.483 167.054 277.59 164.877ZM357.284 623.035C357.284 622.568 357.857 621.613 358.558 620.913C359.258 620.213 359.43 619.64 358.94 619.64C358.45 619.64 357.476 620.423 356.777 621.38C355.772 622.753 355.078 622.872 353.476 621.942C352.331 621.278 352.053 620.751 352.837 620.733C353.601 620.715 353.931 620.223 353.57 619.64C352.878 618.519 354.699 618.214 359.937 618.571C364.613 618.891 365.083 619.573 362.193 621.846C359.501 623.963 357.284 624.5 357.284 623.035ZM662.195 537.339C659.948 535.092 659.572 533.943 660.074 530.849C660.547 527.937 660.097 526.224 658.078 523.254C656.645 521.145 655.472 518.9 655.472 518.266C655.472 517.631 653.595 514.598 651.302 511.524C647.757 506.774 647.029 504.876 646.444 498.867C645.413 488.262 642.026 476.785 637.474 468.465C635.236 464.376 633.086 459.066 632.697 456.665C631.868 451.558 633.942 443.955 638.679 434.745L641.829 428.618L640.059 423.289C639.069 420.307 638.585 416.78 638.961 415.282C639.401 413.529 638.928 411.44 637.591 409.233C636.467 407.378 634.799 403.235 633.884 400.026C632.661 395.739 630.956 392.952 627.46 389.522C620.735 382.925 619.86 380.328 621.948 373.15C626.197 358.536 621.606 350.013 610.392 351.695C606.026 352.349 605.859 352.268 605.242 349.184C604.769 346.818 603.486 345.426 600.265 343.783C596.08 341.648 594.288 341.64 589.149 343.733C587.982 344.208 583.206 345.855 578.537 347.393C571.517 349.706 569.409 350.004 566.352 349.118C563.457 348.279 561.019 348.496 555.094 350.121C548.973 351.8 546.753 351.98 543.446 351.067C536.544 349.162 524.686 338.476 522.999 332.642C521.694 328.127 513.576 317.605 510.813 316.846C509.057 316.365 508.841 315.992 509.917 315.298C510.998 314.6 510.81 314.247 509.121 313.806C506.439 313.105 506.172 310.914 508.766 310.891C510.353 310.877 510.391 310.725 509.031 309.846C508.028 309.198 507.917 308.812 508.73 308.801C509.573 308.791 509.252 307.483 507.806 305.032C505.77 301.583 505.728 301.127 507.283 299.409C512.031 294.165 513.071 282.872 509.462 275.757C507.739 272.36 508.847 267.669 512.523 262.791C513.908 260.954 516.61 256.486 518.529 252.86C521.886 246.519 529.369 237.702 531.394 237.702C533.635 237.702 540.866 229.93 540.866 227.521C540.866 222.083 544.118 216.661 549.421 213.259C552.27 211.431 555.608 208.306 556.84 206.313C559.359 202.239 559.715 202.106 562.649 204.15C563.8 204.952 566.661 205.93 569.006 206.323C572.583 206.923 574.293 206.492 579.617 203.644C588.78 198.745 594.442 197.521 604.927 198.175C611.841 198.607 614.954 198.331 618.306 196.99C623.242 195.016 627.509 196.184 626.354 199.194C626.006 200.098 626.219 201.436 626.825 202.166C627.588 203.085 627.582 204.402 626.805 206.444C625.83 209.008 626.046 209.771 628.463 212.293C629.991 213.888 632.728 215.49 634.544 215.853C643.073 217.558 645.497 218.663 647.259 221.644C648.549 223.827 650.24 224.948 653.036 225.472C655.211 225.88 658.368 226.927 660.053 227.798C662.914 229.277 663.285 229.223 665.671 226.982C667.275 225.475 668.002 223.88 667.626 222.695C667.297 221.657 667.548 219.835 668.184 218.646C669.826 215.578 674.487 215.88 681.766 219.523C689.695 223.492 704.733 226.323 710.064 224.852C712.628 224.144 715.093 224.135 717.338 224.824C724.67 227.077 728.425 225.314 729.426 219.147C729.759 217.099 730.327 215.423 730.688 215.423C731.374 215.423 731.733 212.343 731.832 205.609C731.864 203.421 732.382 201.63 732.982 201.63C733.696 201.63 733.661 200.862 732.88 199.402C731.575 196.964 728.928 197.02 722.594 199.618C719.591 200.851 718.754 200.798 716.064 199.209C712.574 197.149 708.993 196.839 707.961 198.51C707.193 199.752 701.767 198.881 698.825 197.044C696.71 195.724 694.735 191.795 694.735 188.909C694.735 187.803 693.66 186.141 692.347 185.216C690.315 183.785 690.196 183.38 691.551 182.493C692.427 181.92 694.227 181.707 695.553 182.018C697.244 182.416 698.798 181.75 700.761 179.788C702.608 177.942 704.854 176.922 707.371 176.789C709.467 176.677 712.504 175.716 714.12 174.652C717.626 172.341 725.587 172.983 731.764 176.074C740.094 180.243 747.491 179.998 750.468 175.455C752.017 173.091 752.026 172.595 750.556 170.352C749.66 168.985 745.358 165.836 740.995 163.355L733.063 158.843L734.549 155.97C735.367 154.389 735.768 152.829 735.441 152.502C735.114 152.175 735.239 151.279 735.719 150.511C736.198 149.743 736.685 148.498 736.799 147.744C737.042 146.137 735.331 146.581 726.892 150.312C721.993 152.478 721.265 153.142 722.352 154.451C723.064 155.309 724.662 156.031 725.904 156.057C727.645 156.093 727.233 156.594 724.099 158.247C720.295 160.254 719.87 160.28 717.396 158.659C715.281 157.274 715.004 156.629 716.006 155.421C717.002 154.223 716.853 153.761 715.282 153.171C714.195 152.763 712.793 151.746 712.167 150.912C709.127 146.861 699.484 157.517 696.68 168.025C695.363 172.957 695.407 173.213 697.885 175.082L700.457 177.022L695.739 177.995C693.144 178.53 689.646 178.592 687.967 178.133C684.867 177.287 680.94 178.563 680.94 180.416C680.94 180.96 680.217 181.129 679.334 180.79C678.451 180.451 677.05 180.738 676.219 181.427C674.932 182.495 675.078 183.371 677.211 187.383C679.523 191.73 679.595 192.325 678.153 195.215C676.346 198.835 674.666 198.566 672.114 194.246C670.334 191.235 670.346 191.166 672.7 190.832C675.671 190.41 675.863 188.519 672.981 188.059C666.406 187.008 662.9 183.544 662.9 178.1C662.9 173.852 658.961 169.169 654.185 167.738C651.703 166.995 649.004 165.434 648.188 164.269C647.372 163.104 644.984 161.433 642.882 160.555C640.779 159.676 638.425 158.054 637.652 156.95C636.541 155.365 635.811 155.174 634.186 156.044C633.053 156.65 632.126 157.829 632.126 158.663C632.126 161.418 645.652 173.88 652.263 177.216C659.273 180.754 660.368 182.017 655.497 180.948C651.155 179.994 649.973 180.949 651.458 184.208C652.501 186.497 652.33 187.193 650.232 189.209L647.794 191.552L648.348 188.391C649.229 183.374 642.613 176.168 637.127 176.168C635.116 176.168 627.389 168.674 625.365 164.761C623.202 160.579 620.795 159.771 617.385 162.083C612.249 165.564 608.398 166.742 604.37 166.061C599.018 165.157 595.651 167.023 596.504 170.42C596.949 172.194 596.701 172.985 595.701 172.985C594.905 172.985 592.867 174.178 591.171 175.636C589.475 177.094 587.723 178.288 587.276 178.289C585.964 178.29 582.26 184.993 582.255 187.375C582.251 189.652 578.101 194.139 574.097 196.196C572.822 196.851 569.854 197.387 567.502 197.387C564.266 197.387 562.94 197.92 562.052 199.579C560.889 201.751 560.854 201.746 558.134 199.027C555.583 196.476 554.114 195.837 548.965 195.041C546.259 194.623 545.803 188.5 547.826 179.777C548.691 176.048 549.116 171.87 548.77 170.491C547.764 166.486 550.912 164.124 556.177 164.933C568.337 166.8 575.449 166.903 577.116 165.236C579.407 162.946 580.44 155.393 579.042 151.158C578.13 148.396 576.876 147.267 573.135 145.838C567.631 143.737 567.515 141.704 572.896 141.65C574.945 141.63 577.902 140.774 579.467 139.749C581.031 138.725 582.761 138.164 583.311 138.504C584.811 139.431 590.492 136.157 592.378 133.279C593.29 131.888 595.085 130.482 596.368 130.155C597.65 129.829 601.087 127.337 604.005 124.62C608.142 120.767 610.313 119.559 613.861 119.135C618.255 118.611 622.675 114.998 620.6 113.625C619.311 112.772 618.233 107.635 618.951 105.764C619.292 104.877 620.794 103.35 622.29 102.37L625.01 100.588L624.311 104.954C623.705 108.743 623.86 109.278 625.482 109.007C626.51 108.835 628.432 108.101 629.754 107.375C631.767 106.269 632.26 106.323 632.791 107.705C633.7 110.075 631.172 112.861 629.427 111.412C628.463 110.612 627.851 110.641 627.313 111.513C626.757 112.411 626.323 112.362 625.684 111.33C625.205 110.555 624.57 110.164 624.272 110.462C623.974 110.76 624.823 112.372 626.157 114.046C628.407 116.866 628.836 117 632.042 115.883C634.788 114.926 636.106 114.991 638.444 116.2C641.083 117.564 641.975 117.499 647.047 115.572C651.492 113.884 653.244 113.667 655.211 114.563C657.02 115.388 658.361 115.371 660.042 114.502C664.815 112.036 666.138 110.177 665.545 106.764C664.667 101.705 666.275 100.048 670.512 101.647C673.395 102.735 674.238 102.692 675.541 101.389C676.92 100.01 676.802 99.5004 674.541 97.0942C672.365 94.7792 672.213 94.2037 673.539 93.3092C674.399 92.7289 677.623 92.521 680.703 92.8472C686.339 93.444 693.362 91.2428 692.139 89.263C691.067 87.5293 684.598 87.0283 679.117 88.2546C674.256 89.3421 672.981 89.2542 669.255 87.5746C663.469 84.9661 662.788 81.9141 666.756 76.3842C671.864 69.2663 672.799 66.998 671.343 65.2451C669.189 62.6495 667.072 63.4957 662.15 68.9205C659.549 71.787 656.005 74.7187 654.274 75.4355C652.543 76.1523 650.402 78.1402 649.516 79.853C648.073 82.6425 648.076 83.227 649.538 85.4583C650.436 86.8283 652.138 88.2564 653.321 88.6317C656.576 89.6647 655.932 91.6035 651.276 94.7886C649.844 95.7682 647.934 98.5397 647.031 100.947C645.901 103.964 644.181 106.023 641.499 107.571C637.718 109.753 637.547 109.762 635.458 107.872C634.275 106.802 633.02 104.619 632.669 103.022C632.318 101.425 630.725 98.5528 629.128 96.6404L626.224 93.1632L622.543 95.407C620.518 96.6411 617.906 97.6419 616.739 97.6311C613.372 97.6 609.473 93.9633 609.212 90.6097C609.083 88.9432 608.65 86.7624 608.25 85.7634C607.299 83.3871 612.051 78.9304 616.989 77.5673C621.945 76.1991 631.997 69.1558 633.71 65.851C634.472 64.381 637.054 61.4228 639.447 59.2773C641.841 57.1318 643.799 54.9036 643.799 54.3256C643.799 53.7477 646.067 52.4667 648.839 51.479C651.612 50.4913 656.267 48.6992 659.186 47.4966C662.768 46.0202 667.248 45.2396 672.981 45.0929C682.997 44.8368 689.547 46.1641 694.952 49.5451C697.664 51.2416 699.804 51.8203 701.852 51.4109C705.516 50.6783 725.046 56.7305 725.86 58.8507C726.678 60.9816 721.077 62.9931 716.257 62.2992C714.05 61.9813 709.485 61.1314 706.113 60.4104C701.573 59.4398 699.672 59.4091 698.788 60.2924C697.905 61.1756 698.347 61.8274 700.489 62.8035C702.081 63.5286 704.074 65.4564 704.917 67.0876C707.065 71.241 713.946 74.6269 717.496 73.2775C720.907 71.981 720.883 71.5721 717.284 69.6202C713.956 67.8148 715.492 67.4246 719.672 69.0135C723.01 70.2822 726.791 68.7039 725.911 66.4096C725.498 65.335 726.658 64.5592 729.93 63.7211C736.931 61.9275 737.443 61.6711 736.863 60.2517C734.666 54.8828 734.635 55.037 737.831 55.4018C739.537 55.5965 740.782 56.3257 740.641 57.0461C740.501 57.7581 741.389 58.8775 742.615 59.5336C744.457 60.5192 745.911 60.1681 750.975 57.5138C758.402 53.6215 764.185 52.3525 766.341 54.1416C767.543 55.1392 769.536 55.1462 775.307 54.1731C779.388 53.4849 783.19 53.2083 783.757 53.5583C784.323 53.9084 785.1 53.6887 785.482 53.0701C786.319 51.7174 784.006 48.6479 782.74 49.4302C781.212 50.3745 776.193 48.6828 777.284 47.5913C778.384 46.4922 807.916 53.3721 809.683 55.1391C810.874 56.3303 814.646 54.7413 814.646 53.0482C814.646 52.4776 812.54 50.9878 809.966 49.7375C801.985 45.8607 801.472 39.6517 808.978 37.7683C813.334 36.6752 815.218 37.9361 821.243 45.9783C829.066 56.4194 828.867 55.8882 826.311 59.4766C824.418 62.1338 824.304 62.7556 825.617 63.2594C828.105 64.2138 833.43 60.8739 834.179 57.8888C835.057 54.3911 833.418 51.4102 829.503 49.386C826.425 47.7947 824.197 44.8788 824.197 42.4416C824.197 41.6109 825.351 41.4037 827.646 41.8227C831.086 42.4509 833.931 41.2036 841.721 35.6528C843.503 34.3834 846.514 33.5469 849.551 33.478C855.711 33.3383 857.705 32.3044 855.932 30.1691C855.237 29.3316 854.889 28.4256 855.159 28.1556C856.514 26.8006 873.984 24.3591 878.008 24.9623C881.879 25.5428 883.078 25.2288 886.263 22.7999C888.312 21.2371 889.989 19.5377 889.989 19.0234C889.989 17.7266 880.716 17.8424 879.908 19.1493C878.796 20.9476 877.355 20.3219 877.761 18.2169C878.103 16.4397 877.205 16.1505 869.476 15.5488C848.37 13.9058 846.654 13.5203 849.186 10.9888C851.412 8.76309 856.872 8.80624 861.443 11.0856C863.315 12.0196 866.417 12.7837 868.336 12.7837C870.254 12.7837 872.119 13.2611 872.48 13.8446C872.84 14.4282 874.699 14.9056 876.61 14.9056C881.903 14.9056 892.135 17.1911 891.493 18.2299C891.181 18.7356 892.171 19.1493 893.693 19.1493C895.216 19.1493 897.99 19.9715 899.857 20.9764C902.369 22.3278 905.878 22.8139 913.335 22.8438C921.35 22.8759 924.014 23.2874 926.334 24.852C927.939 25.9344 929.245 27.1231 929.237 27.4936C929.229 27.8641 926.779 29.5143 923.795 31.1607C916.586 35.1368 918.11 36.8696 926.829 34.6108C932.477 33.1477 933.774 33.1383 938.45 34.5266C942.286 35.6656 944.682 35.8118 947.283 35.0658C949.881 34.3211 952.547 34.481 957.07 35.6529C961.79 36.8757 964.236 37 967.227 36.1694C974.054 34.2738 982.453 34.8092 987.325 37.4505C989.747 38.7635 994.213 41.1927 997.25 42.8489C1002.63 45.7847 1002.87 45.8171 1006.6 44.1436C1009.73 42.7428 1011.47 42.6256 1016.08 43.5067C1020.66 44.3824 1022.33 44.2757 1024.91 42.9416C1027.43 41.6365 1027.84 40.995 1026.88 39.8343C1025.01 37.5897 1031.62 36.7553 1039.75 38.2098C1043.47 38.876 1048.18 39.541 1050.22 39.6876C1052.27 39.8342 1056.26 40.998 1059.09 42.2739C1063.42 44.2197 1066.68 44.6605 1079.33 45.0079C1091.34 45.3375 1095.16 45.8178 1098.05 47.3608C1100.99 48.927 1104.34 49.3254 1115.49 49.434C1125.74 49.5339 1130.33 50.02 1133.37 51.3269C1138.28 53.4364 1140.25 52.6627 1137.57 49.6719C1135.65 47.5206 1135.66 47.5176 1143.08 48.2539C1155.5 49.4876 1170.4 52.2051 1175.44 54.1568C1178.07 55.173 1183.07 56.3539 1186.57 56.781C1190.06 57.208 1195.15 58.6913 1197.89 60.0772C1202.04 62.1807 1203.39 62.4131 1206.06 61.4839C1209.7 60.2132 1212.07 61.1282 1217.63 65.9633L1221.09 68.9676L1218.49 69.6218C1215.87 70.2784 1208.92 68.5587 1206.53 66.6619C1205.82 66.1042 1204.84 65.902 1204.33 66.2125C1203.83 66.523 1201.35 66.0637 1198.82 65.1919C1192.89 63.1501 1190.26 63.917 1192.96 66.8995C1194.8 68.9365 1194.76 68.9792 1191.25 68.734C1184.67 68.2751 1186.47 70.2179 1196.13 73.9851C1201.39 76.0335 1205.91 77.9271 1206.19 78.1933C1207.18 79.1572 1203.9 80.352 1201.51 79.8954C1198.89 79.394 1192.42 82.2088 1192.42 83.8524C1192.42 84.3982 1191.4 85.7962 1190.15 86.959C1188.07 88.9015 1187.63 88.9457 1184.85 87.5036C1182.23 86.154 1181.4 86.14 1178.89 87.4037C1177.29 88.2121 1174.54 89.2176 1172.8 89.6381C1171.05 90.0587 1169.02 90.896 1168.3 91.499C1166.16 93.271 1169.93 98.4289 1175.23 100.996C1178.12 102.394 1180.21 104.267 1180.83 106.013C1181.38 107.545 1182.53 110.061 1183.4 111.605C1184.82 114.12 1184.81 114.479 1183.28 115.062C1182.17 115.489 1181.84 116.346 1182.33 117.56C1182.73 118.576 1183.19 120.602 1183.35 122.06C1183.5 123.519 1183.97 125.505 1184.39 126.473C1184.93 127.734 1184.48 128.445 1182.81 128.976C1180.95 129.566 1179.69 128.855 1176.63 125.471C1174.52 123.135 1170.99 119.92 1168.8 118.325C1166.6 116.731 1162.67 112.584 1160.06 109.111C1155.45 102.984 1155.36 102.705 1156.89 99.7495C1157.75 98.074 1158.48 95.6052 1158.5 94.2634C1158.52 92.9215 1159.2 90.6379 1160 89.1887C1161.53 86.4207 1160.94 84.2107 1157.66 80.4526C1155.51 77.9851 1151.68 79.8348 1152.65 82.8755C1153.54 85.6767 1150.81 86.5844 1147.67 84.5313C1146.31 83.6411 1143.18 82.5907 1140.71 82.197C1136.48 81.521 1136.16 81.651 1135.06 84.5305C1134.43 86.2076 1134.16 88.8589 1134.47 90.4222C1134.95 92.8581 1134.62 93.3565 1132.11 93.9069C1130.4 94.2814 1127.48 93.8383 1125.1 92.8439C1122.49 91.7517 1120.03 91.4215 1118.25 91.9254C1116.73 92.3581 1111.59 92.7509 1106.82 92.7983C1099.26 92.8734 1097.81 93.203 1095.51 95.3589C1094.06 96.7198 1092.32 100.062 1091.64 102.785C1090.97 105.509 1089.72 108.8 1088.88 110.099C1087.43 112.344 1087.57 112.571 1091.72 114.692C1096.24 116.994 1101.16 117.601 1104.89 116.315C1107.77 115.323 1116.55 122.165 1119.29 127.537C1120.41 129.738 1122.27 132.039 1123.41 132.652C1127.75 134.971 1128.63 150.188 1125 160.136C1122.49 167.024 1119.68 169.277 1115.56 167.709C1113.98 167.11 1112.54 166.62 1112.34 166.62C1112.15 166.62 1110.97 168.578 1109.72 170.972C1108.08 174.116 1107.76 175.699 1108.57 176.673C1110.11 178.536 1108.97 180.959 1105.88 182.367C1104.45 183.017 1103.28 184.011 1103.28 184.576C1103.28 185.141 1106.6 187.888 1110.66 190.68C1115.82 194.232 1118.58 196.96 1119.85 199.765C1120.84 201.97 1121.46 203.949 1121.22 204.163C1120.99 204.377 1118.82 205.548 1116.4 206.765L1112.01 208.977L1109.37 202.916C1106.42 196.134 1103.88 193.406 1099.42 192.205C1097.17 191.599 1096.39 190.742 1096.39 188.884C1096.39 187.181 1095.28 185.734 1092.95 184.364C1089.54 182.368 1089.47 182.371 1085.85 184.611C1082.22 186.853 1082.18 186.855 1081.06 184.773C1080.44 183.618 1079.94 181.942 1079.94 181.049C1079.94 180.156 1079.05 178.948 1077.96 178.365C1076.33 177.497 1075.31 178.022 1072.33 181.245C1070.33 183.413 1067.76 185.713 1066.63 186.358C1064.87 187.358 1064.77 187.781 1065.99 189.242C1066.77 190.183 1069.47 192.104 1071.98 193.51C1075.98 195.747 1076.75 195.874 1078.1 194.525C1079.38 193.242 1080.43 193.195 1084.3 194.246L1088.96 195.51L1086.36 197.244C1081.55 200.461 1080.03 202.149 1079.34 205.052C1078.78 207.434 1079.12 208.151 1081.26 209.126C1082.68 209.776 1084.85 212.371 1086.08 214.892C1087.3 217.413 1089.75 220.329 1091.52 221.371C1095.4 223.665 1096.53 226.102 1094.28 227.357C1092.19 228.527 1093.19 230.276 1095.95 230.276C1099.26 230.276 1099.27 232.247 1096.08 243.623C1092.21 257.4 1088.72 261.997 1079.58 265.339C1075.98 266.655 1071.61 267.811 1069.86 267.908C1065.79 268.133 1062.63 269.856 1059.88 273.356L1057.69 276.134L1056.67 273.454C1055.34 269.957 1052.29 269.077 1047.92 270.929C1043.9 272.626 1041.26 275.331 1040.19 278.83C1039.24 281.961 1042.62 287.467 1048.21 291.898C1052.81 295.536 1057.96 304.664 1059.17 311.306C1060.22 317.084 1058.36 320.875 1053.36 323.132C1051.08 324.159 1048.94 325.845 1048.62 326.877C1047.83 329.355 1043.12 332.441 1042.25 331.044C1041.89 330.461 1041.88 329.102 1042.22 328.022C1042.56 326.942 1042.55 325.285 1042.18 324.338C1041.66 322.975 1041.08 322.853 1039.41 323.749C1037.66 324.683 1036.99 324.446 1035.58 322.404C1032.12 317.383 1022.08 309.316 1019.29 309.316C1018.32 309.316 1017.94 310.494 1018.1 313.029C1018.24 315.071 1017.82 319.053 1017.18 321.877C1016.13 326.479 1016.24 327.322 1018.21 329.993C1019.43 331.633 1020.72 334.174 1021.09 335.641C1021.46 337.13 1024.53 340.532 1028.04 343.346C1033.89 348.037 1034.51 348.963 1036.97 356.755C1038.42 361.358 1039.61 365.577 1039.61 366.131C1039.61 367.93 1037.4 367.201 1032.77 363.879C1027.99 360.445 1024.93 355.013 1022.39 345.411C1021.28 341.242 1020.07 339.454 1016.63 336.923C1012.41 333.819 1012.28 333.548 1012.62 328.413C1012.81 325.495 1013.29 321.36 1013.68 319.223C1014.23 316.215 1013.78 314.059 1011.66 309.674C1010.16 306.56 1008.39 301.776 1007.72 299.044C1006.22 292.94 1004.11 291.918 1000.38 295.491C998.843 296.968 997.283 298.176 996.919 298.176C995.23 298.176 992.91 294.581 993.466 292.828C994.477 289.643 988.26 278.542 984.622 277.036C982.632 276.211 980.812 274.212 979.594 271.512C977.478 266.82 975.104 265.025 972.732 266.323C971.872 266.794 968.428 267.741 965.078 268.427C958.938 269.686 956.735 271.545 957.576 274.759C957.885 275.942 956.811 277.085 954.235 278.313C952.146 279.309 949.896 281.312 949.234 282.764C948.572 284.216 947.115 285.694 945.996 286.049C944.877 286.405 943.151 288.028 942.16 289.658C941.169 291.287 938.217 294.265 935.601 296.275C932.02 299.027 930.902 300.566 931.08 302.501C932.12 313.815 930.524 323.281 926.628 328.902C922.827 334.385 922.56 334.538 919.345 333.073C917.575 332.267 916.485 330.692 916.034 328.288C915.664 326.317 913.527 320.765 911.284 315.949C897.716 286.813 895.71 281.253 896.866 275.992C897.647 272.436 895.773 267.072 893.962 267.679C893.236 267.923 892.629 268.797 892.614 269.622C892.523 274.465 887.082 275.208 882.831 270.958L880.015 268.143L882.438 267.246C885.164 266.238 884.914 263.519 882.141 264.017C881.155 264.195 878.9 263.12 877.129 261.63C875.358 260.14 873.5 258.921 873 258.921C872.501 258.921 871.787 257.961 871.415 256.788C870.437 253.707 864.808 251.026 861.986 252.298C859.448 253.443 836.414 253.204 832.558 251.993C831.169 251.557 828.601 249.56 826.85 247.557C823.686 243.937 823.637 243.922 818.891 245.201C814.394 246.413 813.741 246.299 807.683 243.242C802.449 240.6 800.881 239.175 799.265 235.593C797.203 231.022 792.625 227.713 789.841 228.781C788.964 229.117 787.94 230.788 787.565 232.494C787.027 234.945 787.576 236.537 790.178 240.074C791.989 242.537 793.963 246.377 794.564 248.608C795.855 253.401 798.403 254.826 800.516 251.937C801.791 250.194 802.135 250.133 802.998 251.5C803.549 252.372 803.846 253.563 803.659 254.147C803.069 255.981 809.192 258.999 812.049 258.282C813.493 257.92 816.578 255.461 818.905 252.818C822.571 248.654 823.851 248.373 823.225 251.87C822.803 254.223 824.655 256.982 827.721 258.566C832.456 261.014 839.053 266.466 839.053 267.932C839.053 268.608 837.813 270.318 836.297 271.733C834.781 273.147 832.599 276.141 831.449 278.384C828.653 283.836 820.549 291.81 817.805 291.81C814.634 291.81 809.916 294.488 808.038 297.353C807.148 298.711 804.809 300.626 802.84 301.609C792.753 306.643 780.61 311.747 777.192 312.388C773.538 313.073 773.242 312.907 771.307 309.091C770.186 306.88 768.914 302.446 768.48 299.237C767.917 295.063 766.824 292.41 764.64 289.917C762.962 288 761.588 285.971 761.588 285.409C761.588 284.846 759.673 282.413 757.333 280.002C754.418 276.999 752.534 273.74 751.353 269.657C750.405 266.378 748.476 262.263 747.066 260.513C737.327 248.421 734.443 244.158 732.992 239.706C731.068 233.805 729.44 232.852 728.69 237.186L728.156 240.263L724.567 235.731C719.035 228.748 718.338 231.923 723.531 240.447C725.988 244.481 729.906 251.601 732.236 256.269C734.566 260.937 737.587 266.234 738.95 268.039C740.352 269.898 741.426 272.804 741.426 274.74C741.426 278.738 742.619 281.233 747.305 287.036C749.19 289.37 751.052 292.778 751.443 294.609C751.945 296.957 753.993 299.412 758.396 302.944C765.089 308.31 769.425 313.911 770.501 318.58C770.905 320.333 772.437 322.133 774.379 323.137C777.338 324.667 778.38 324.625 787.732 322.6C793.311 321.391 799.221 319.707 800.865 318.857L803.855 317.311L804.564 321.511C805.209 325.327 804.515 327.165 796.961 341.651C788.838 357.226 788.458 357.741 780.382 364.116C775.836 367.704 771.079 372.097 769.81 373.878C768.542 375.659 764.484 380.469 760.792 384.567C750.019 396.526 748.554 407.044 755.699 421.141C757.514 424.722 758.223 427.433 757.793 429.146C757.435 430.572 757.665 434.171 758.303 437.146C759.307 441.829 759.194 443.081 757.455 446.487C754.946 451.402 752.95 453.169 745.936 456.683C742.872 458.218 740.365 459.928 740.365 460.482C740.365 461.036 738.216 463.908 735.59 466.865C732.963 469.821 730.814 472.721 730.814 473.308C730.814 473.896 731.799 476.305 733.002 478.663C736.609 485.733 734.185 490.856 725.538 494.437C721.893 495.947 720.696 499.029 721.598 504.584C722.07 507.495 721.77 508.464 720.12 509.347C718.981 509.956 716.922 512.224 715.544 514.388C711.195 521.218 698.69 533.303 693.01 536.168C688.27 538.558 687.057 538.769 683.575 537.807C680.504 536.96 678.026 537.094 672.878 538.387C664.539 540.481 665.424 540.568 662.195 537.339ZM801.965 198.951C804.704 197.535 805.096 196.755 805.096 192.715C805.096 189.819 804.477 187.584 803.434 186.719C802.52 185.961 801.039 183.923 800.143 182.191C798.661 179.325 798.668 179.1 800.213 179.693C802.254 180.476 805.096 179.535 805.096 178.075C805.096 177.498 804.109 175.64 802.902 173.946C801.084 171.394 800.356 171.053 798.657 171.963C797.284 172.698 796.606 172.704 796.606 171.983C796.606 171.391 794.712 169.94 792.397 168.759C787.274 166.147 785.451 163.251 787.049 160.266C788.259 158.007 792.579 156.424 794.424 157.564C796.911 159.101 797.644 156.836 795.592 153.954C790.615 146.966 783.685 147.426 775.091 155.315C769.545 160.405 769.063 161.758 772.2 163.437C773.367 164.061 774.322 165.282 774.322 166.15C774.322 167.018 776.21 169.775 778.517 172.277C783.83 178.04 784.804 180.674 784.147 187.494L783.618 192.985L790.908 196.725C794.918 198.782 798.341 200.489 798.516 200.517C798.691 200.546 800.243 199.841 801.965 198.951ZM772.73 495.303C769.734 493.605 769.308 492.708 768.526 486.446C767.9 481.441 768.161 480.354 771.156 475.488C774.199 470.544 774.418 469.591 773.747 464.22C772.777 456.465 774.427 452.39 778.935 451.401C783.183 450.47 792.373 442.358 794.575 437.597L796.258 433.958L797.428 436.525C800.37 442.982 800.071 445.819 794.951 459.982C792.212 467.561 789.273 476.625 788.42 480.126C785.691 491.331 784.141 494.033 779.671 495.372C774.913 496.797 775.373 496.802 772.73 495.303ZM822.075 475.352C822.075 474.769 822.552 474.291 823.136 474.291C823.719 474.291 824.197 474.769 824.197 475.352C824.197 475.936 823.719 476.413 823.136 476.413C822.552 476.413 822.075 475.936 822.075 475.352ZM829.503 471.702C829.503 471.444 829.98 470.939 830.564 470.578C831.147 470.217 831.625 470.428 831.625 471.046C831.625 471.664 831.147 472.169 830.564 472.169C829.98 472.169 829.503 471.959 829.503 471.702ZM773.792 436.098C773.431 435.514 773.641 435.037 774.259 435.037C774.878 435.037 775.383 435.514 775.383 436.098C775.383 436.681 775.173 437.159 774.915 437.159C774.658 437.159 774.152 436.681 773.792 436.098ZM1239.64 426.13C1232.93 424.013 1229.88 422.046 1227.24 418.119C1224.22 413.633 1218.69 410.236 1215.87 411.132C1214.73 411.494 1212.81 413.462 1211.61 415.506C1209.55 418.984 1209.16 419.176 1205.43 418.513C1203.23 418.123 1200.17 416.623 1198.62 415.178C1196.65 413.341 1195.14 412.761 1193.6 413.249C1192.39 413.633 1190.64 413.52 1189.71 412.998C1188.25 412.182 1188.39 411.799 1190.72 410.271C1193.43 408.501 1193.43 408.477 1191.62 404.676C1190.16 401.622 1188.15 400.031 1181.58 396.729C1177.06 394.457 1171.96 392.599 1170.23 392.599C1166.29 392.599 1164.66 388.962 1167.63 386.789C1169.4 385.497 1169.14 385.175 1164.52 382.935C1159.63 380.555 1159.56 380.455 1161.9 379.156C1163.22 378.422 1165.35 377.804 1166.63 377.784C1169.11 377.743 1172.26 381.33 1172.26 384.205C1172.26 385.163 1173.29 387.259 1174.55 388.862C1176.81 391.734 1176.87 391.746 1178.53 389.672C1179.46 388.515 1182.42 386.306 1185.11 384.765L1190 381.962L1196.78 385.021C1200.51 386.703 1205.81 388.887 1208.55 389.875C1211.29 390.862 1216.77 393.798 1220.73 396.399C1228.29 401.365 1231.58 405.552 1229.7 407.822C1228.16 409.672 1234.19 418.101 1240.44 422.83C1247.3 428.028 1247.19 428.509 1239.64 426.13ZM1285.82 426.044C1284.99 425.036 1284.91 424.427 1285.61 424.427C1286.89 424.427 1288.39 426.44 1287.65 427.176C1287.39 427.443 1286.56 426.934 1285.82 426.044ZM1107.53 421.726C1105.99 420.875 1105.54 420.25 1106.47 420.237C1108.36 420.212 1111.39 421.978 1110.68 422.691C1110.4 422.967 1108.98 422.533 1107.53 421.726ZM1125.47 420.324C1128.48 416.099 1133.19 414.29 1137.54 415.688C1140.71 416.707 1140.76 416.792 1138.24 416.892C1136.75 416.952 1133.27 418.433 1130.51 420.184C1124.21 424.178 1122.69 424.22 1125.47 420.324ZM1279.44 421.775C1278 420.048 1278.35 419.832 1280.94 420.828C1281.86 421.182 1282.62 421.898 1282.62 422.419C1282.62 423.886 1280.9 423.539 1279.44 421.775ZM1284.41 420.839C1284.01 419.799 1283.71 418.153 1283.75 417.179C1283.79 416.007 1284.16 416.274 1284.84 417.971C1285.4 419.38 1285.7 421.026 1285.5 421.63C1285.3 422.234 1284.81 421.878 1284.41 420.839ZM1095.05 417.382C1094.32 417.072 1093.99 416.383 1094.32 415.849C1095.13 414.538 1101.93 414.611 1102.75 415.94C1103.11 416.523 1102.78 417.007 1102.02 417.015C1101.26 417.023 1099.67 417.235 1098.51 417.487C1097.34 417.738 1095.79 417.691 1095.05 417.382ZM1110.81 416.585C1108.88 414.262 1111.1 413.555 1116.1 414.901C1121.14 416.257 1121.12 416.469 1115.9 417.411C1113.19 417.9 1111.7 417.659 1110.81 416.585ZM1270.13 415.94C1269.4 414.764 1269.27 413.818 1269.84 413.818C1270.41 413.818 1271.38 414.773 1272.01 415.94C1272.63 417.107 1272.76 418.062 1272.3 418.062C1271.84 418.062 1270.86 417.107 1270.13 415.94ZM1276.78 414.872C1273.94 411.738 1275.46 411.245 1278.38 414.353C1279.75 415.809 1280.38 417.001 1279.79 417.001C1279.19 417.001 1277.84 416.043 1276.78 414.872ZM1077.82 414.688C1074.02 414.163 1068.67 412.996 1065.93 412.096C1063.19 411.196 1059.95 410.773 1058.74 411.156C1056.32 411.927 1045.98 408.889 1045.98 407.404C1045.98 404.013 1055.49 403.755 1060.55 407.01C1062.44 408.225 1063.92 408.306 1067.91 407.412C1072.33 406.422 1073.26 406.544 1075.85 408.463C1077.47 409.658 1079.27 410.635 1079.86 410.635C1081.96 410.635 1088.33 414.184 1087.79 415.054C1087.49 415.541 1086.67 415.873 1085.98 415.792C1085.28 415.711 1081.61 415.214 1077.82 414.688ZM1268.29 409.574C1267.24 408.407 1266.85 407.452 1267.43 407.452C1268.02 407.452 1269.36 408.407 1270.42 409.574C1271.47 410.741 1271.86 411.696 1271.28 411.696C1270.69 411.696 1269.35 410.741 1268.29 409.574ZM1261.6 408.23C1261 407.504 1260.2 405.48 1259.82 403.733C1259.22 400.919 1259.29 400.798 1260.42 402.678C1261.12 403.845 1262.37 405.588 1263.21 406.551C1264.09 407.572 1264.3 408.563 1263.71 408.927C1263.15 409.27 1262.2 408.957 1261.6 408.23ZM1239.13 404.857L1236.49 403.398L1240.58 402.632C1242.83 402.21 1246.28 400.447 1248.26 398.714C1250.41 396.822 1251.84 396.136 1251.83 396.998C1251.81 399.156 1250.5 400.818 1246.53 403.744C1242.39 406.8 1242.59 406.77 1239.13 404.857ZM1040.07 400.726C1036.17 398.506 1029.14 389.914 1026.85 384.574C1025.62 381.694 1022.79 376.95 1020.56 374.033C1018.34 371.115 1015.78 367.296 1014.89 365.545C1013.99 363.795 1011.27 360.453 1008.84 358.119C1003.71 353.198 1000.56 348.026 1002.71 348.063C1005.49 348.111 1012.66 352.096 1015.74 355.304C1024.22 364.156 1025.96 365.731 1029.96 368.198C1033.82 370.578 1035.65 373.055 1035.84 376.155C1035.87 376.738 1036.97 378.409 1038.28 379.868C1039.59 381.327 1042.06 384.07 1043.76 385.965C1045.47 387.859 1047.18 390.815 1047.56 392.533C1048.79 398.158 1044.26 403.114 1040.07 400.726ZM826.319 400.026C826.319 399.442 826.797 398.965 827.38 398.965C827.964 398.965 828.441 399.442 828.441 400.026C828.441 400.609 827.964 401.087 827.38 401.087C826.797 401.087 826.319 400.609 826.319 400.026ZM1106.99 400.016C1106.63 399.427 1106.62 398.017 1106.98 396.882C1107.34 395.745 1106.9 393.7 1106 392.329C1104.53 390.074 1104.54 389.602 1106.15 387.298C1107.13 385.901 1108.29 382.147 1108.72 378.956C1109.26 375.02 1110.31 372.354 1112.01 370.661C1114.32 368.346 1114.9 368.243 1120.11 369.23C1124.58 370.078 1126.34 369.973 1128.77 368.715C1132.85 366.609 1133.14 366.703 1131.79 369.672C1130.07 373.446 1126.63 374.653 1123.01 372.754C1116.54 369.364 1107.95 374.402 1112.48 378.931C1114.15 380.596 1115.07 380.747 1118.15 379.863C1123.44 378.347 1125.52 378.625 1122.24 380.409C1118.52 382.427 1117.82 384.667 1119.73 388.37C1120.61 390.055 1121.32 392.667 1121.32 394.175C1121.32 396.59 1121.06 396.782 1119.19 395.781C1118.03 395.156 1116.34 392.899 1115.45 390.765C1113.84 386.915 1113.81 386.901 1111.75 388.96C1109.95 390.766 1109.83 391.568 1110.81 395.146C1111.71 398.381 1111.65 399.45 1110.53 400.156C1108.66 401.344 1107.79 401.31 1106.99 400.016H1106.99ZM1252.58 394.358C1251.58 392.831 1249.29 390.821 1247.49 389.891C1245.69 388.96 1244.46 387.96 1244.75 387.668C1246.4 386.019 1255.61 393.512 1254.82 395.865C1254.58 396.589 1253.62 395.941 1252.58 394.358ZM1085.94 390.826C1084.34 389.988 1082.18 389.57 1081.15 389.899C1078.51 390.737 1068.02 388.603 1066.98 387.017C1066.16 385.755 1063.73 377.981 1062.43 372.441C1062.07 370.918 1062.43 368.941 1063.26 367.798C1064.48 366.139 1065.1 366.013 1067.03 367.042C1069.06 368.128 1069.49 367.942 1070.6 365.5C1071.3 363.972 1073.61 361.831 1075.75 360.742C1078.01 359.588 1080.19 357.428 1080.96 355.568C1081.84 353.424 1083.47 351.984 1085.9 351.183C1087.88 350.526 1090.76 348.357 1092.28 346.362C1093.8 344.367 1095.61 342.735 1096.3 342.735C1096.99 342.735 1099.09 344.311 1100.96 346.237L1104.35 349.74L1101.63 353.399C1098.54 357.556 1098.7 361.131 1102.2 366.05L1104.32 369.028L1101.68 370.759C1100.23 371.711 1099.04 373.076 1099.04 373.792C1099.05 376.222 1092.25 390.229 1090.55 391.293C1089.36 392.034 1087.98 391.894 1085.94 390.826ZM1147.59 390.807C1145.39 390.233 1145.09 388.355 1147.19 388.355C1147.99 388.355 1150.24 388.673 1152.18 389.062C1155.17 389.66 1155.39 389.892 1153.64 390.579C1151.33 391.48 1150.31 391.518 1147.59 390.807ZM1143.87 374.401C1143.02 373.553 1142.97 372.569 1143.71 371.196C1144.29 370.106 1144.48 368.757 1144.14 368.198C1143.18 366.65 1145.58 362.893 1147.52 362.893C1149.08 362.893 1149.08 363.075 1147.45 364.866C1146.05 366.416 1145.9 367.44 1146.73 369.631C1148.41 374.061 1146.58 377.114 1143.87 374.401ZM610.903 370.913C610.903 370.655 611.38 370.15 611.964 369.789C612.548 369.428 613.025 369.639 613.025 370.257C613.025 370.875 612.548 371.38 611.964 371.38C611.38 371.38 610.903 371.17 610.903 370.913ZM617.27 358.181C617.27 357.924 617.747 357.418 618.331 357.058C618.914 356.697 619.392 356.908 619.392 357.526C619.392 358.144 618.914 358.649 618.331 358.649C617.747 358.649 617.27 358.439 617.27 358.181ZM1127.7 342.23C1125.68 337.509 1125.41 337.297 1122.29 337.981C1119.19 338.663 1119.08 338.58 1120.24 336.406C1121.21 334.607 1122.1 334.249 1124.38 334.751C1126.58 335.234 1127.99 334.745 1130.14 332.748C1131.71 331.294 1133.01 329.247 1133.02 328.198C1133.05 325.52 1136.99 334.5 1137.89 339.302C1138.57 342.947 1138.49 343.146 1136.83 341.772C1134.37 339.734 1132 341.848 1134.02 344.282C1134.83 345.252 1134.93 345.918 1134.27 345.918C1133.67 345.918 1132.42 346.206 1131.5 346.558C1130.27 347.031 1129.27 345.897 1127.7 342.23ZM934.22 344.104C933.034 342.178 932.359 333.532 933.216 331.238C934.125 328.805 934.193 328.835 936.897 332.83C940.137 337.617 941.174 340.688 940.105 342.327C939.081 343.896 934.874 345.167 934.22 344.104ZM1171.2 338.617C1171.2 338.033 1171.68 337.261 1172.26 336.9C1172.84 336.539 1173.32 336.722 1173.32 337.305C1173.32 337.889 1172.84 338.661 1172.26 339.022C1171.68 339.382 1171.2 339.2 1171.2 338.617ZM1096.92 332.362C1096.92 331.908 1099.04 329.163 1101.64 326.262C1105.45 322.01 1106.38 321.409 1106.42 323.166C1106.45 324.365 1104.85 327.11 1102.87 329.266C1099.52 332.923 1096.92 334.278 1096.92 332.362ZM1119.9 329.531C1119.51 328.524 1119.59 326.994 1120.07 326.132C1120.82 324.797 1121.13 324.784 1122.18 326.045C1123.12 327.175 1123.08 327.98 1122.01 329.444C1120.69 331.242 1120.56 331.248 1119.9 329.531ZM307.271 325.397C307.921 324.614 308.138 323.659 307.754 323.275C307.37 322.891 308.046 322.577 309.256 322.577C310.933 322.577 311.324 323.081 310.901 324.699C310.578 325.931 309.453 326.821 308.217 326.821C306.557 326.821 306.349 326.508 307.271 325.397ZM1127.02 325.116C1126.62 324.012 1126.11 322.75 1125.87 322.312C1125.64 321.874 1125.89 321.516 1126.44 321.516C1127.5 321.516 1128.99 325.873 1128.2 326.661C1127.95 326.916 1127.42 326.221 1127.02 325.116ZM1116.27 322.348C1114.78 320.553 1116.23 317.997 1118.46 318.494C1119.86 318.806 1119.91 319.248 1118.79 321.323C1117.7 323.326 1117.24 323.516 1116.27 322.348ZM1128.81 318.702C1127.6 317.154 1126.78 315.711 1126.99 315.494C1127.85 314.632 1130.84 316.532 1132.43 318.953C1134.87 322.677 1131.77 322.462 1128.81 318.702ZM1111.37 314.595C1110.42 313.65 1109.65 312.328 1109.65 311.656C1109.65 310.985 1110.7 311.483 1111.98 312.764C1113.26 314.044 1114.03 315.367 1113.7 315.702C1113.36 316.038 1112.31 315.54 1111.37 314.595ZM278.405 314.443C278.015 314.054 277.697 313.243 277.697 312.64C277.697 311.975 278.191 312.038 278.953 312.799C279.643 313.49 279.962 314.301 279.66 314.603C279.359 314.904 278.794 314.832 278.405 314.443ZM272.391 313.029C272.391 312.445 272.602 311.968 272.859 311.968C273.117 311.968 273.622 312.445 273.983 313.029C274.344 313.612 274.133 314.09 273.515 314.09C272.897 314.09 272.391 313.612 272.391 313.029ZM322.266 310.907C322.266 310.324 322.477 309.846 322.734 309.846C322.991 309.846 323.497 310.324 323.858 310.907C324.219 311.491 324.008 311.968 323.39 311.968C322.772 311.968 322.266 311.491 322.266 310.907ZM1122.04 310.745C1120.98 310.145 1118.96 309.942 1117.56 310.294C1115.51 310.809 1114.09 309.983 1110.24 306.026C1104.81 300.437 1103.75 298.08 1105.35 295.103C1105.96 293.952 1106.47 291.575 1106.47 289.821C1106.47 284.062 1110.32 284.295 1113.15 290.224C1114.72 293.509 1114.73 294.214 1113.26 297.738C1111.67 301.531 1111.7 301.7 1114.53 304.651C1116.57 306.783 1118.11 307.507 1119.72 307.102C1121.08 306.759 1122.56 307.184 1123.36 308.151C1125.27 310.453 1124.44 312.096 1122.04 310.745ZM315.899 304.074C315.899 303.816 316.377 303.311 316.96 302.95C317.544 302.589 318.021 302.8 318.021 303.418C318.021 304.036 317.544 304.541 316.96 304.541C316.377 304.541 315.899 304.331 315.899 304.074ZM482.502 300.298C482.502 299.714 482.979 299.237 483.563 299.237C484.147 299.237 484.624 299.714 484.624 300.298C484.624 300.881 484.147 301.359 483.563 301.359C482.979 301.359 482.502 300.881 482.502 300.298ZM312.716 296.179C312.716 295.596 313.193 294.823 313.777 294.462C314.36 294.102 314.838 294.284 314.838 294.868C314.838 295.451 314.36 296.224 313.777 296.584C313.193 296.945 312.716 296.763 312.716 296.179ZM303.703 291.822C303.331 291.221 303.757 291.043 304.702 291.405C306.54 292.111 306.876 292.871 305.35 292.871C304.801 292.871 304.06 292.399 303.703 291.822ZM472.421 291.81C472.06 291.227 472.271 290.749 472.889 290.749C473.507 290.749 474.013 291.227 474.013 291.81C474.013 292.394 473.802 292.871 473.545 292.871C473.287 292.871 472.782 292.394 472.421 291.81ZM307.94 289.688C307.58 289.105 307.79 288.627 308.408 288.627C309.026 288.627 309.532 289.105 309.532 289.688C309.532 290.272 309.322 290.749 309.064 290.749C308.807 290.749 308.301 290.272 307.94 289.688ZM312.716 289.688C312.716 289.105 312.926 288.627 313.184 288.627C313.441 288.627 313.947 289.105 314.307 289.688C314.668 290.272 314.457 290.749 313.839 290.749C313.221 290.749 312.716 290.272 312.716 289.688ZM239.761 286.864C239.031 286.569 238.434 285.891 238.434 285.356C238.434 283.826 243.118 284.22 245.394 285.941C247.351 287.421 247.295 287.496 244.27 287.449C242.52 287.421 240.49 287.158 239.761 286.864ZM266.612 286.262C265.661 285.729 263.558 285.584 261.94 285.94C260.322 286.295 257.833 286.12 256.41 285.551C254.12 284.635 254.323 284.527 258.161 284.617C263.803 284.749 265.309 283.83 263.868 281.136C262.844 279.225 263.152 279.079 268.214 279.079C273.111 279.079 280.176 281.324 281.373 283.261C282.169 284.549 268.513 287.325 266.612 286.262ZM286.968 286.933C285.71 285.675 287.273 284.384 290.052 284.384C291.72 284.384 292.566 284.884 292.293 285.71C291.804 287.195 288.084 288.049 286.968 286.933ZM1054.69 285.246C1051.89 282.436 1054.67 279.079 1059.8 279.079C1062.08 279.079 1062.08 279.097 1060.13 282.442C1057.85 286.34 1056.49 287.042 1054.69 285.246ZM295.737 285.028C295.737 284.798 296.453 284.336 297.329 284C298.204 283.664 298.92 283.852 298.92 284.417C298.92 284.982 298.204 285.445 297.329 285.445C296.453 285.445 295.737 285.257 295.737 285.028ZM249.865 277.423C249.538 277.095 247.297 276.8 244.887 276.767C241.562 276.721 240.764 276.394 241.58 275.411C242.368 274.461 241.236 273.197 237.335 270.67C229.686 265.714 225.415 264.746 220.276 266.802C215.458 268.729 215.088 268.784 215.088 267.57C215.088 265.349 223.534 262.907 229.615 263.369C235.431 263.811 238.688 265.049 250.107 271.157C259.493 276.177 259.503 276.187 256.474 277.05C253.034 278.031 250.61 278.167 249.865 277.423ZM257.535 268.47C259.592 267.14 260.719 267.14 260.719 268.47C260.719 269.053 259.644 269.523 258.331 269.514C256.4 269.501 256.248 269.301 257.535 268.47ZM1102.65 266.588C1102 266.164 1100.9 264.719 1100.19 263.376C1099.13 261.352 1099.24 260.37 1100.84 257.626C1103.31 253.389 1104.99 252.86 1105.79 256.06C1106.63 259.427 1104.19 267.608 1102.65 266.588ZM264.502 265.174C265.211 264.028 269.208 263.898 269.207 265.021C269.207 265.459 268.016 265.886 266.561 265.97C265.106 266.054 264.18 265.696 264.502 265.174ZM243.518 254.949C241.821 253.002 242.068 250.434 243.952 250.434C244.555 250.434 244.805 251.366 244.507 252.505C244.209 253.644 244.511 254.772 245.179 255.012C245.847 255.252 246.111 255.755 245.767 256.13C245.423 256.505 244.411 255.974 243.518 254.949ZM249.682 246.614C249.305 245.63 249.234 244.586 249.526 244.295C249.818 244.003 250.366 244.569 250.744 245.553C251.121 246.537 251.191 247.581 250.9 247.873C250.608 248.165 250.06 247.598 249.682 246.614ZM243.032 245.659C243.032 244.784 243.942 244.068 245.054 244.068C246.85 244.068 246.898 244.245 245.483 245.659C244.608 246.535 243.698 247.251 243.462 247.251C243.226 247.251 243.032 246.535 243.032 245.659ZM1133 222.4C1133 221.57 1131.84 219.513 1130.42 217.829C1127.06 213.833 1128.25 211.166 1132.23 213.775C1135.09 215.651 1136.59 219.483 1135.53 222.234C1134.73 224.321 1133 224.435 1133 222.4ZM309.532 216.016C309.532 215.758 310.01 215.253 310.593 214.892C311.177 214.532 311.654 214.742 311.654 215.36C311.654 215.978 311.177 216.484 310.593 216.484C310.01 216.484 309.532 216.273 309.532 216.016ZM1138.91 214.712C1138.22 212.919 1139.85 211.225 1142.28 211.195C1143.97 211.174 1144 213.546 1142.33 215.21C1140.6 216.94 1139.72 216.811 1138.91 214.712ZM1148.6 210.839C1146.54 207.695 1143.63 207.264 1136.97 209.114C1134.26 209.866 1132.4 209.874 1131.14 209.14C1130.12 208.546 1129.84 208.046 1130.53 208.028C1131.21 208.011 1133.21 206.786 1134.97 205.306C1137.24 203.398 1138.9 202.801 1140.69 203.251C1142.59 203.727 1144.64 202.815 1148.95 199.576C1157.35 193.27 1158.11 191.281 1154.69 184.542C1151.41 178.074 1152.33 175.992 1157.18 178.861C1160.72 180.949 1164.05 186.929 1163.08 189.451C1162.74 190.359 1163.25 193.207 1164.24 195.78C1165.63 199.422 1165.76 200.953 1164.83 202.687C1163.47 205.234 1159.68 206.935 1155.36 206.935C1152.95 206.935 1152.23 207.555 1151.44 210.309L1150.47 213.682L1148.6 210.839ZM718.717 207.218C717.45 205.952 718.124 204.813 720.14 204.813C721.273 204.813 722.495 204.336 722.856 203.752C723.842 202.157 725.524 202.477 724.886 204.139C724.232 205.845 719.637 208.138 718.717 207.218ZM682.531 205.382L679.348 203.925L683.593 203.853C688.879 203.764 692.774 204.755 692.007 205.995C691.154 207.376 686.185 207.055 682.531 205.382ZM639.664 194.799C635.417 192.625 635.217 192.354 637.434 191.774C640.089 191.08 645.967 191.944 645.847 193.01C645.806 193.375 645.447 194.464 645.051 195.43C644.399 197.018 643.882 196.958 639.664 194.799ZM618.394 183.321C617.476 180.687 617.548 179.678 618.742 178.485C620.899 176.328 622.576 177.844 622.576 181.952C622.576 186.804 619.913 187.676 618.394 183.321ZM593.511 184.202C594.264 182.241 597.492 181.909 596.843 183.86C596.6 184.589 595.607 185.34 594.636 185.528C593.405 185.767 593.064 185.366 593.511 184.202ZM1147.97 172.092C1146.03 169.365 1145.98 168.862 1147.41 166.815C1148.82 164.803 1148.81 164.201 1147.36 161.395C1144.98 156.779 1145.31 156.5 1149.45 159.657C1151.5 161.217 1155.54 163.196 1158.42 164.054C1164.4 165.827 1165.84 167.218 1162.72 168.206C1161.55 168.579 1160.59 169.577 1160.59 170.424C1160.59 171.578 1159.85 171.777 1157.67 171.218C1152.07 169.786 1150.48 170.136 1150.84 172.72C1151.28 175.886 1150.56 175.73 1147.97 172.092ZM620.099 173.339C618.869 172.108 619.333 170.052 620.984 169.419C622.134 168.977 622.576 169.535 622.576 171.427C622.576 173.974 621.537 174.776 620.099 173.339ZM1141.24 150.971C1140.34 149.95 1138.17 146.249 1136.42 142.746C1134.66 139.244 1130.03 132.813 1126.12 128.454C1121.76 123.585 1119.54 120.356 1120.37 120.08C1121.11 119.832 1122.7 120.942 1123.91 122.545C1126.83 126.432 1130.42 129.807 1136.1 133.987C1140.8 137.451 1143.12 140.658 1140.09 139.494C1136.59 138.152 1137.46 141.338 1141.99 146.435C1144.63 149.406 1146.79 152.06 1146.79 152.332C1146.79 153.623 1142.69 152.617 1141.24 150.971ZM364.713 149.114C364.713 148.239 365.175 147.523 365.74 147.523C366.306 147.523 366.493 148.239 366.158 149.114C365.822 149.989 365.359 150.705 365.13 150.705C364.9 150.705 364.713 149.989 364.713 149.114ZM359.168 145.69L355.214 145.276L362.653 137.912C366.745 133.861 370.627 130.548 371.281 130.548C371.971 130.548 371.764 131.327 370.789 132.405C368.579 134.846 370.086 137.587 374.123 138.474C375.885 138.861 377.642 140.211 378.321 141.701C379.41 144.092 379.226 144.335 375.549 145.356C371.692 146.427 367.088 146.521 359.168 145.69ZM100.595 138.079C96.9191 134.646 96.509 133.2 98.9465 132.265C101.129 131.427 105.159 134.157 106.686 137.509C108.289 141.025 108.26 141.157 105.901 141.157C104.795 141.157 102.408 139.772 100.595 138.079ZM567.926 132.689C569.093 132.113 571.39 131.158 573.03 130.566C576.644 129.263 576.045 127.874 571.474 126.96C568.339 126.333 568.228 126.174 570.022 124.862C571.09 124.082 571.653 122.94 571.272 122.324C570.884 121.696 571.975 120.72 573.763 120.097C575.514 119.487 576.945 118.517 576.945 117.941C576.945 115.49 574.734 111.368 573.505 111.528C570.672 111.898 569.359 111.398 569.816 110.125C570.078 109.395 569.862 107.963 569.337 106.942C567.971 104.287 571.109 98.7953 574.027 98.7358C574.465 98.7277 574.704 99.305 574.558 100.021C574.412 100.736 575.413 101.491 576.783 101.699L579.274 102.077L576.894 104.61L574.514 107.142L577.197 108.162C580.076 109.256 582.852 112.822 585.678 119.058C587.032 122.046 587.922 122.827 589.502 122.414C592.745 121.566 593.13 123.763 590.087 125.756C588.026 127.106 587.635 127.867 588.538 128.77C589.441 129.672 587.661 130.278 581.489 131.169C576.947 131.824 571.56 132.669 569.517 133.048C566.676 133.574 566.302 133.489 567.926 132.689ZM550.03 126.828C549.667 125.882 550.081 123.734 550.951 122.053C551.948 120.125 552.141 118.757 551.474 118.344C549.635 117.208 550.324 115.758 553.026 115.08C554.461 114.72 556.191 113.756 556.87 112.938C558.284 111.235 564.82 110.922 565.802 112.51C566.162 113.092 565.713 114.631 564.804 115.929C563.894 117.227 563.15 119.558 563.15 121.11C563.15 123.476 562.423 124.183 558.64 125.496C556.16 126.356 553.356 127.395 552.41 127.804C551.301 128.284 550.456 127.937 550.03 126.828ZM569.517 116.288C569.517 116.03 569.995 115.525 570.579 115.164C571.162 114.803 571.64 115.014 571.64 115.632C571.64 116.25 571.162 116.755 570.579 116.755C569.995 116.755 569.517 116.545 569.517 116.288ZM98.5724 111.176C97.5329 109.923 97.5991 109.34 98.9035 108.258C101.06 106.468 102.13 107.682 100.875 110.494C100.009 112.434 99.6941 112.527 98.5724 111.176ZM96.9129 103.197C96.5546 102.617 96.9724 101.553 97.8415 100.832C99.5668 99.4001 99.9271 100.523 98.4768 102.811C97.9226 103.686 97.3087 103.837 96.9129 103.197ZM28.3235 102.52C28.3235 101.774 31.5412 100.468 36.1059 99.3628C37.8363 98.9437 38.8593 99.0448 38.5156 99.6009C38.187 100.132 36.595 100.834 34.9779 101.161C33.3607 101.487 31.2019 102.077 30.1806 102.472C29.1592 102.867 28.3235 102.889 28.3235 102.52ZM658.92 90.5903C656.963 89.8006 657.309 88.5832 659.539 88.4152C660.609 88.3346 661.485 88.9491 661.485 89.7808C661.485 91.3605 661.117 91.4766 658.92 90.5903ZM425.73 85.1678C419.014 81.5066 415.804 75.8816 417.75 71.1851C418.671 68.9624 418.699 67.5647 417.855 65.9874C416.098 62.7047 418.39 58.8577 424.253 55.2508C427.038 53.5377 429.819 51.1983 430.432 50.0521C432.132 46.8767 430.618 41.435 427.66 40.0875C426.163 39.4055 425.348 38.3271 425.679 37.4653C426.432 35.5026 422.899 28.7992 419.38 25.5149C416.79 23.0976 415.676 22.8569 406.808 22.7988C394.732 22.7197 392.483 22.0486 392.683 18.5843C392.766 17.1453 393.085 15.9676 393.392 15.9672C393.699 15.9668 397.997 15.4688 402.942 14.8606C409.257 14.084 414.919 12.4825 421.957 9.48157C432.855 4.83539 433.685 4.7446 459.687 5.35563C467.898 5.54858 475.451 4.94106 485.155 3.30727C494.191 1.78578 500.841 1.21223 504.431 1.64453C507.482 2.01184 511.899 1.76958 514.393 1.09821C520.18 -0.459773 535.216 1.41433 541.13 4.43072C544.626 6.21399 546.476 6.44946 552.375 5.86225C558.748 5.22797 559.229 5.3114 557.314 6.71786C556.147 7.57498 552.565 8.622 549.355 9.04457C542.39 9.96154 535.989 14.9251 537.686 18.0943C538.417 19.4614 537.893 20.6283 535.527 22.8945C533.808 24.5412 532.149 26.6811 531.842 27.6499C531.103 29.9772 521.722 34.3086 517.07 34.4701C511.903 34.6495 511.363 35.7475 515.359 37.9477C517.246 38.9871 520.001 40.7581 521.481 41.8833L524.172 43.929L521.74 44.8288C519.875 45.5185 518.362 45.0738 515.259 42.9238C511.047 40.0061 506.517 39.9914 508.934 42.9033C509.876 44.0389 509.65 44.48 507.885 44.9412C503.942 45.9722 506.731 48.011 511.08 47.2764C513.848 46.8088 515.405 47.0553 516.271 48.098C517.301 49.3386 515.957 49.9131 508.228 51.5373C503.125 52.6097 496.324 53.5263 493.113 53.5743C487.15 53.6634 482.853 55.3749 476.531 60.1786C474.47 61.7451 470.089 63.2975 464.963 64.2781C454.249 66.3276 450.628 68.6978 444.172 77.8885C438.987 85.2704 435.86 88.0218 432.627 88.0478C431.752 88.055 428.648 86.7588 425.73 85.1678ZM350.488 78.0721C348.209 76.6722 345.417 74.0612 344.282 72.27C342.068 68.7731 340.026 68.3289 334.047 70.0431C332.023 70.6234 329.752 70.6794 328.844 70.1712C325.702 68.4131 331.378 66.6839 337.699 67.4735C342.507 68.0741 343.575 67.903 344.135 66.4423C345.262 63.5076 350.417 61.4044 353.284 62.7102C355.048 63.514 356.653 63.4916 358.906 62.6315C361.938 61.4745 361.98 61.37 360 59.916C358.867 59.0844 357.574 58.4039 357.126 58.4039C356.679 58.4039 355.063 56.2726 353.537 53.6677C352.01 51.0627 349.148 47.9351 347.177 46.7173C343.828 44.6478 343.385 44.6114 340.389 46.1603C337.77 47.5144 336.257 47.6092 332.113 46.6788C329.323 46.0527 325.429 45.8418 323.458 46.2102C320.04 46.8493 313.777 45.1768 313.777 43.6248C313.777 40.7739 322.764 34.3756 328.102 33.4259L332.347 32.6708L329.313 35.9027C325.128 40.361 326.702 42.4127 331.246 38.4231C333.174 36.7307 336.506 35.0169 338.651 34.6146C341.928 34 343.332 34.4008 347.446 37.1256C352.921 40.7511 353.343 40.8483 356.43 39.1963C358.289 38.2016 358.979 38.4748 360.998 41.0062C362.394 42.7572 365.513 44.6639 368.554 45.6259C373.401 47.1592 373.733 47.4927 373.733 50.8349C373.733 53.3411 374.455 54.9226 376.157 56.1396C383.279 61.2315 383.124 61.0211 381.583 63.488C379.47 66.8705 377.802 67.1156 373.125 64.7305C369.872 63.0713 368.451 62.8438 366.814 63.72C364.81 64.7922 364.788 65.0213 366.401 68.1401C367.725 70.6996 367.846 71.992 366.947 73.9661C365.838 76.3987 365.661 76.4363 362.651 74.88C356.734 71.8206 352.749 73.8338 358.269 77.0939C359.999 78.1153 361.173 79.3409 360.878 79.8173C359.85 81.48 354.6 80.5981 350.488 78.0721ZM568.456 79.4458C568.456 78.9596 569.172 78.5617 570.048 78.5617C570.923 78.5617 571.64 78.9596 571.64 79.4458C571.64 79.9321 570.923 80.33 570.048 80.33C569.172 80.33 568.456 79.9321 568.456 79.4458ZM310.477 73.7402C308.385 72.6405 306.76 72.5464 303.831 73.3552C298.85 74.7302 297.108 73.724 299.635 70.9316C302.871 67.3568 305.066 66.6537 308.969 67.9415C313.361 69.3909 315.311 71.5452 314.126 73.6403C313.37 74.976 312.855 74.9901 310.477 73.7402ZM521.234 73.257C519.483 72.106 517.255 71.4161 516.282 71.7238C514.942 72.1476 514.644 71.7797 515.056 70.2071C515.687 67.7934 525.011 64.3096 528.163 65.3098C529.261 65.6584 532.07 65.3717 534.404 64.6726C538.068 63.5751 539.039 63.6582 541.516 65.2807L544.385 67.1599L541.829 69.1509C539.673 70.8313 535.673 72.2893 526.01 74.917C525.134 75.155 522.985 74.4081 521.234 73.257ZM233.128 53.452C231.669 53.2215 228.115 51.9736 225.23 50.6789L219.984 48.325L227.352 47.7945C231.404 47.5028 234.72 46.7866 234.72 46.2031C234.72 45.6196 231.855 44.8863 228.353 44.5736C223.729 44.1606 222.858 43.8701 225.17 43.5126C229.04 42.9141 229.319 41.238 225.7 40.3243C223.094 39.6662 223.113 39.626 226.779 38.0469C233.132 35.3102 239.899 34.7859 245.894 36.566C250.817 38.0275 251.586 38.0213 253.907 36.501C255.548 35.4258 256.522 35.2459 256.607 36.0022C256.679 36.6528 256.799 37.7421 256.872 38.4229C257.118 40.7213 259.235 40.4239 261.761 37.736C264.099 35.2477 268.152 34.0557 268.143 35.859C268.141 36.2966 267.196 38.1998 266.045 40.0882L263.951 43.5216L267.375 45.3077L270.8 47.0938L265.177 49.6596C260.103 51.9748 259.063 52.1073 254.515 51.0165C250.105 49.9589 248.84 50.0799 244.397 51.984C239.379 54.1346 238.321 54.2725 233.128 53.452ZM275.688 52.7046C274.729 51.5499 275.125 50.9817 277.602 49.9559C279.326 49.2419 281.799 49.0039 283.124 49.4245C285.423 50.1538 285.37 50.2684 281.876 52.1286C277.419 54.5019 277.197 54.5226 275.688 52.7046ZM568.456 47.7945C570.513 46.4653 571.64 46.4653 571.64 47.7945C571.64 48.3781 570.565 48.8482 569.252 48.8392C567.321 48.8261 567.169 48.6262 568.456 47.7945ZM763.18 44.8512C757.755 42.7086 757.866 42.8258 759.445 40.9241C760.183 40.0347 760.37 39.2919 759.861 39.2733C759.352 39.2547 759.89 38.5181 761.058 37.6362C762.225 36.7544 763.188 35.6954 763.198 35.2829C763.235 33.7137 767.555 29.5754 770.608 28.1848C772.359 27.3872 776.895 26.4883 780.689 26.1872C784.483 25.8861 789.564 25.3344 791.981 24.9613C794.553 24.5641 796.65 24.7265 797.037 25.3529C797.789 26.57 796.354 27.0874 788.117 28.5668C779.944 30.0347 775.032 32.3223 771.796 36.1668C768.388 40.2168 768.273 42.774 771.404 44.9571L773.792 46.6223L770.608 46.5749C768.857 46.5488 765.514 45.7731 763.18 44.8512ZM207.4 41.775C205.689 40.064 206.079 39.6915 214.29 35.1976C223.91 29.9323 228.744 29.2333 237.373 31.8599L242.148 33.3135L235.781 34.5757C230.574 35.608 219.539 39.2973 210.825 42.9193C209.936 43.2888 208.401 42.7761 207.4 41.775ZM284.064 40.4019C284.064 39.837 282.751 38.6213 281.146 37.7002L278.228 36.0256L282.135 36.64C284.911 37.0765 286.294 36.8164 286.91 35.7417C287.644 34.4635 294.398 31.9058 297.091 31.8864C297.543 31.8828 297.174 33.3111 296.269 35.0597C294.139 39.178 284.064 43.5879 284.064 40.4019ZM300.586 37.3041C299.065 34.8447 309.449 31.0376 313.86 32.4373C317.074 33.4574 314.926 35.2102 309.319 36.1421C306.81 36.5591 303.969 37.2356 303.007 37.6455C302.045 38.0554 300.955 37.9018 300.586 37.3041ZM334.469 29.4917C327.466 28.9347 321.605 28.3578 321.445 28.2097C320.496 27.3295 322.863 24.4642 325.41 23.4094C327.914 22.3724 329.068 22.51 332.496 24.2545C335.838 25.9548 337.992 26.2375 344.2 25.7902C348.384 25.4887 353.159 25.584 354.811 26.0021L357.815 26.7622L354.101 28.7464C352.058 29.8377 349.671 30.6797 348.795 30.6175C347.92 30.5552 341.473 30.0487 334.469 29.4917ZM639.849 25.1558C634.636 22.4877 634.133 21.2777 638.228 21.2549C639.833 21.2459 641.862 20.7235 642.738 20.0939C644.114 19.1042 644.095 19.0233 642.602 19.4967C641.651 19.7979 640.318 19.4886 639.639 18.81C638.701 17.8714 638.211 17.888 637.599 18.8793C637.031 19.7971 635.867 19.9057 633.664 19.2462C628.068 17.5708 626.82 16.827 626.82 15.1659C626.82 13.7588 628.223 13.6299 636.901 14.2398C643.511 14.7043 646.982 14.5756 646.982 13.866C646.982 11.7775 649.927 12.8088 650.707 15.1707L651.496 17.5578L651.966 15.1707C652.224 13.8578 653.119 12.7836 653.954 12.7836C654.789 12.7836 655.472 12.2107 655.472 11.5105C655.472 10.5203 655.755 10.5203 656.745 11.5105C657.486 12.251 661.037 12.7836 665.234 12.7836C672.821 12.7836 674.603 14.1397 669.543 16.0631C666.914 17.0626 662.341 16.7798 657.329 15.3079C656.307 15.0079 655.475 15.1527 655.478 15.6297C655.486 16.6088 661.448 20.2102 663.062 20.2102C663.64 20.2102 664.782 20.8799 665.601 21.6985C666.879 22.9757 666.868 23.272 665.526 23.7871C664.665 24.1172 663.961 23.8717 663.961 23.2416C663.961 22.5009 662.611 22.349 660.143 22.8121C657.469 23.3136 656.542 23.176 657.05 22.3532C657.45 21.7069 657.2 20.4829 656.494 19.6332C655.134 17.994 651.227 17.4921 651.227 18.9565C651.227 19.434 649.675 21.5402 647.778 23.6368L644.329 27.4489L639.849 25.1558ZM358.346 22.8218C356.506 21.7421 353.904 21.4293 349.856 21.8016C346.073 22.1495 343.165 21.8496 341.59 20.949C339.418 19.7075 339.949 19.566 346.577 19.6197C354.864 19.6868 358.504 17.9131 354.016 15.9945C351.883 15.0831 352.194 15.0004 355.849 15.5066C360.62 16.1674 362.475 14.8893 359.875 12.7323C357.103 10.4321 360.151 9.71809 370.015 10.357C376.118 10.7523 379.954 10.5306 381.521 9.69169C384.525 8.08464 383.346 6.03893 379.913 6.90037C377.541 7.49574 361.075 6.51878 361.77 5.82388C362.266 5.32727 385.595 3.16717 400.913 2.19944C408.858 1.69747 417.692 0.997254 420.544 0.643393L425.73 0L417.169 4.11092C409.144 7.96519 396.092 11.7227 390.73 11.7227C389.425 11.7227 385.672 13.1549 382.391 14.9055C379.11 16.656 375.767 18.0883 374.963 18.0883C374.159 18.0883 370.688 19.5145 367.25 21.2577C363.812 23.0008 360.999 24.4162 360.999 24.4029C360.999 24.3896 359.805 23.6781 358.346 22.8218ZM337.653 13.1289C332.51 11.9912 332.321 11.5632 336.101 9.60482C341.61 6.75027 346.823 6.01864 349.193 7.76741C351.069 9.15194 350.96 9.36595 347.275 11.5399C343.434 13.8056 341.875 14.063 337.653 13.1289Z" fill="url(#paint0_linear)"/>
<defs>
<linearGradient id="paint0_linear" x1="1288" y1="148.504" x2="1.72843e-06" y2="148.504" gradientUnits="userSpaceOnUse">
<stop stop-color="#1BB2ED"/>
<stop offset="1" stop-color="#1BB2ED"/>
</linearGradient>
</defs>
</svg>
